<svg width="32" height="32" viewBox="0 0 32 32" fill="none" xmlns="http://www.w3.org/2000/svg">
  <rect width="32" height="32" rx="8" fill="url(#paint0_linear)"/>
  <path d="M13.0809 23C12.4509 23 11.8809 22.89 11.3709 22.67C10.8709 22.45 10.4809 22.14 10.2009 21.74C9.92086 21.34 9.78086 20.86 9.78086 20.3C9.78086 19.82 9.87086 19.42 10.0509 19.1C10.2309 18.78 10.4909 18.52 10.8309 18.32C11.1709 18.12 11.5709 17.96 12.0309 17.84C12.5009 17.72 12.9909 17.62 13.5009 17.54C14.1809 17.42 14.7209 17.32 15.1209 17.24C15.5309 17.16 15.8209 17.05 15.9909 16.91C16.1609 16.77 16.2459 16.58 16.2459 16.34V16.3C16.2459 15.84 16.0959 15.49 15.7959 15.25C15.5059 15.01 15.0909 14.89 14.5509 14.89C13.9809 14.89 13.5209 15.01 13.1709 15.25C12.8209 15.49 12.6209 15.8 12.5709 16.18L10.0809 15.98C10.1809 15.34 10.4109 14.79 10.7709 14.33C11.1309 13.87 11.6109 13.52 12.2109 13.28C12.8209 13.04 13.5209 12.92 14.3109 12.92C14.8809 12.92 15.4109 13 15.9009 13.16C16.4009 13.32 16.8309 13.53 17.1909 13.81C17.5509 14.09 17.8309 14.43 18.0309 14.83C18.2309 15.23 18.3309 15.69 18.3309 16.21V23H16.3909V21.63H16.3209C16.1809 21.93 15.9809 22.19 15.7209 22.41C15.4609 22.63 15.1459 22.8 14.7709 22.92C14.3959 23.04 13.9609 23.1 13.4659 23.1L13.0809 23ZM13.7909 21.17C14.2509 21.17 14.6509 21.08 14.9909 20.9C15.3309 20.72 15.5909 20.48 15.7709 20.18C15.9509 19.88 16.0409 19.54 16.0409 19.18V18.46C15.9509 18.52 15.8259 18.58 15.6659 18.64C15.5159 18.7 15.3409 18.75 15.1409 18.8C14.9409 18.84 14.7409 18.88 14.5409 18.92C14.3409 18.96 14.1659 19 14.0159 19.04C13.6859 19.12 13.3959 19.22 13.1459 19.34C12.8959 19.46 12.7009 19.61 12.5609 19.79C12.4209 19.96 12.3509 20.17 12.3509 20.41C12.3509 20.77 12.4909 21.05 12.7709 21.25C13.0509 21.44 13.3909 21.53 13.7909 21.53V21.17Z" fill="white"/>
  <rect x="19" y="13" width="3" height="10" rx="1.5" fill="white"/>
  <defs>
    <linearGradient id="paint0_linear" x1="0" y1="16" x2="32" y2="16" gradientUnits="userSpaceOnUse">
      <stop stop-color="#4F46E5"/>
      <stop offset="1" stop-color="#A855F7"/>
    </linearGradient>
  </defs>
</svg> 