<svg width="120" height="40" viewBox="0 0 120 40" fill="none" xmlns="http://www.w3.org/2000/svg">
  <path d="M28.1641 31C27.2441 31 26.4141 30.83 25.6641 30.49C24.9241 30.15 24.3341 29.67 23.8941 29.05C23.4641 28.43 23.2491 27.7 23.2491 26.86C23.2491 26.14 23.3941 25.52 23.6841 25C23.9741 24.48 24.3791 24.04 24.8991 23.68C25.4191 23.32 26.0191 23.03 26.6991 22.81C27.3891 22.59 28.1341 22.41 28.9341 22.27C29.9541 22.09 30.7641 21.94 31.3641 21.82C31.9741 21.7 32.4041 21.53 32.6541 21.31C32.9041 21.09 33.0291 20.79 33.0291 20.41V20.35C33.0291 19.67 32.8091 19.14 32.3691 18.76C31.9391 18.38 31.3191 18.19 30.5091 18.19C29.6591 18.19 28.9891 18.38 28.4991 18.76C28.0091 19.14 27.6991 19.63 27.5691 20.23L23.8441 19.91C24.0141 18.89 24.3941 18.01 24.9841 17.27C25.5741 16.53 26.3441 15.96 27.2941 15.56C28.2541 15.16 29.3641 14.96 30.6241 14.96C31.5141 14.96 32.3541 15.07 33.1441 15.29C33.9441 15.51 34.6491 15.83 35.2591 16.25C35.8691 16.67 36.3441 17.19 36.6841 17.81C37.0241 18.43 37.1941 19.14 37.1941 19.94V30.7H33.2391V28.58H33.1241C32.8941 29.06 32.5841 29.48 32.1941 29.84C31.8041 30.2 31.3341 30.48 30.7841 30.68C30.2341 30.89 29.5941 31 28.8641 31H28.1641ZM29.3241 28.01C30.0241 28.01 30.6341 27.87 31.1541 27.59C31.6741 27.31 32.0741 26.94 32.3541 26.48C32.6341 26.02 32.7741 25.51 32.7741 24.95V23.86C32.6341 23.96 32.4441 24.06 32.2041 24.16C31.9741 24.25 31.7141 24.33 31.4241 24.4C31.1341 24.47 30.8441 24.54 30.5541 24.61C30.2641 24.67 29.9991 24.73 29.7591 24.79C29.2491 24.91 28.8141 25.07 28.4541 25.27C28.0941 25.47 27.8141 25.71 27.6141 26C27.4141 26.28 27.3141 26.61 27.3141 26.99C27.3141 27.55 27.5341 27.98 27.9741 28.28C28.4141 28.58 29.0041 28.73 29.7441 28.73L29.3241 28.01ZM47.0393 20.38L43.2843 20.52C43.2243 20.16 43.0843 19.84 42.8643 19.56C42.6443 19.28 42.3543 19.06 41.9943 18.9C41.6343 18.74 41.2193 18.66 40.7493 18.66C40.1293 18.66 39.6043 18.78 39.1743 19.02C38.7443 19.26 38.5293 19.59 38.5293 20.01C38.5293 20.35 38.6743 20.63 38.9643 20.85C39.2543 21.07 39.7493 21.24 40.4493 21.36L43.2243 21.84C44.7243 22.08 45.8343 22.52 46.5543 23.16C47.2743 23.8 47.6343 24.66 47.6343 25.74C47.6343 26.72 47.3343 27.58 46.7343 28.32C46.1443 29.06 45.3343 29.64 44.3043 30.06C43.2843 30.48 42.1143 30.69 40.7943 30.69C38.6943 30.69 37.0293 30.25 35.7993 29.37C34.5793 28.48 33.8893 27.27 33.7293 25.74L37.7643 25.61C37.8743 26.23 38.1743 26.71 38.6643 27.05C39.1543 27.39 39.8193 27.56 40.6593 27.56C41.3493 27.56 41.9093 27.44 42.3393 27.2C42.7793 26.95 43.0043 26.62 43.0143 26.2C43.0043 25.84 42.8393 25.55 42.5193 25.33C42.1993 25.11 41.7193 24.94 41.0793 24.83L38.3943 24.37C36.8843 24.13 35.7693 23.66 35.0493 22.97C34.3393 22.28 33.9843 21.4 33.9843 20.33C33.9843 19.37 34.2593 18.54 34.8093 17.84C35.3693 17.14 36.1443 16.6 37.1343 16.22C38.1343 15.84 39.2943 15.65 40.6143 15.65C42.6243 15.65 44.1943 16.08 45.3243 16.94C46.4643 17.8 47.0043 18.95 46.9443 20.39L47.0393 20.38ZM55.9468 15.85V18.97H49.0468V15.85H55.9468ZM50.4168 12.01H54.5818V25.84C54.5818 26.3 54.6568 26.65 54.8068 26.89C54.9568 27.13 55.1518 27.29 55.3918 27.37C55.6418 27.45 55.9168 27.49 56.2168 27.49C56.4168 27.49 56.6168 27.47 56.8168 27.43C57.0168 27.39 57.1718 27.36 57.2818 27.33L57.8968 30.4C57.6668 30.48 57.3518 30.57 56.9518 30.67C56.5518 30.77 56.0718 30.83 55.5118 30.85C54.4718 30.89 53.5618 30.74 52.7818 30.4C52.0118 30.06 51.4068 29.55 50.9668 28.87C50.5268 28.19 50.3118 27.34 50.3218 26.32V12.01H50.4168ZM67.5364 15.65V18.77H59.4964V15.65H67.5364ZM61.4064 10.24H65.5714V25.78C65.5714 26.14 65.6264 26.42 65.7364 26.62C65.8464 26.82 65.9964 26.96 66.1864 27.04C66.3764 27.12 66.5964 27.16 66.8464 27.16C67.0264 27.16 67.2064 27.14 67.3864 27.1C67.5664 27.06 67.7014 27.03 67.7914 27L68.3364 30.07C68.1564 30.13 67.9064 30.2 67.5864 30.28C67.2664 30.36 66.8764 30.41 66.4164 30.43C65.4964 30.47 64.7064 30.34 64.0464 30.04C63.3964 29.74 62.8964 29.27 62.5464 28.63C62.1964 27.99 62.0264 27.18 62.0364 26.2V10.24H61.4064Z" fill="url(#paint0_linear)"/>
  <path d="M89.32 16V30.7H85.18V26.89H85.09C84.81 27.97 84.28 28.84 83.5 29.5C82.72 30.16 81.74 30.49 80.56 30.49C79.48 30.49 78.55 30.23 77.77 29.71C77 29.19 76.41 28.47 76 27.55C75.6 26.63 75.4 25.55 75.41 24.31V16H79.6V23.68C79.59 24.58 79.81 25.28 80.26 25.78C80.71 26.28 81.32 26.53 82.09 26.53C82.58 26.53 83.03 26.42 83.44 26.2C83.84 25.97 84.17 25.64 84.42 25.21C84.68 24.77 84.8 24.24 84.8 23.62V16H89.32ZM101.564 20.38L97.8096 20.52C97.7496 20.16 97.6096 19.84 97.3896 19.56C97.1696 19.28 96.8796 19.06 96.5196 18.9C96.1596 18.74 95.7446 18.66 95.2746 18.66C94.6546 18.66 94.1296 18.78 93.6996 19.02C93.2696 19.26 93.0546 19.59 93.0546 20.01C93.0546 20.35 93.1996 20.63 93.4896 20.85C93.7796 21.07 94.2746 21.24 94.9746 21.36L97.7496 21.84C99.2496 22.08 100.36 22.52 101.08 23.16C101.8 23.8 102.16 24.66 102.16 25.74C102.16 26.72 101.86 27.58 101.26 28.32C100.67 29.06 99.8596 29.64 98.8296 30.06C97.8096 30.48 96.6396 30.69 95.3196 30.69C93.2196 30.69 91.5546 30.25 90.3246 29.37C89.1046 28.48 88.4146 27.27 88.2546 25.74L92.2896 25.61C92.3996 26.23 92.6996 26.71 93.1896 27.05C93.6796 27.39 94.3446 27.56 95.1846 27.56C95.8746 27.56 96.4346 27.44 96.8646 27.2C97.3046 26.95 97.5296 26.62 97.5396 26.2C97.5296 25.84 97.3646 25.55 97.0446 25.33C96.7246 25.11 96.2446 24.94 95.6046 24.83L92.9196 24.37C91.4096 24.13 90.2946 23.66 89.5746 22.97C88.8646 22.28 88.5096 21.4 88.5096 20.33C88.5096 19.37 88.7846 18.54 89.3346 17.84C89.8946 17.14 90.6696 16.6 91.6596 16.22C92.6596 15.84 93.8196 15.65 95.1396 15.65C97.1496 15.65 98.7196 16.08 99.8496 16.94C100.99 17.8 101.53 18.95 101.47 20.39L101.564 20.38Z" fill="url(#paint1_linear)"/>
  <rect x="70" y="11" width="5" height="20" rx="2.5" fill="url(#paint2_linear)"/>
  <defs>
    <linearGradient id="paint0_linear" x1="23.2491" y1="21.005" x2="67.7914" y2="21.005" gradientUnits="userSpaceOnUse">
      <stop stop-color="#4F46E5"/>
      <stop offset="1" stop-color="#A855F7"/>
    </linearGradient>
    <linearGradient id="paint1_linear" x1="75.41" y1="23.345" x2="101.564" y2="23.345" gradientUnits="userSpaceOnUse">
      <stop stop-color="#4F46E5"/>
      <stop offset="1" stop-color="#A855F7"/>
    </linearGradient>
    <linearGradient id="paint2_linear" x1="70" y1="21" x2="75" y2="21" gradientUnits="userSpaceOnUse">
      <stop stop-color="#4F46E5"/>
      <stop offset="1" stop-color="#A855F7"/>
    </linearGradient>
  </defs>
</svg> 